<svg width="1440" height="570" viewBox="0 0 1440 570" fill="none" xmlns="http://www.w3.org/2000/svg">
<g clip-path="url(#clip0_3533_6420)">
<path d="M1440 1.91992L1390.36 10.7999L1340.71 1.91992L1291.06 10.7999L1241.4 1.91992L1191.77 10.7999L1142.12 1.91992L1092.46 10.7999L1042.81 1.91992L993.155 10.7999L943.502 1.91992L893.866 10.7999L844.213 1.91992L794.56 10.7999L744.889 1.91992L695.235 10.7999L645.582 1.91992L595.929 10.7999L546.275 1.91992L496.622 10.7999L446.951 1.91992L397.297 10.7999L347.644 1.91992L297.991 10.7999L248.337 1.91992L198.666 10.7999L149.013 1.91992L99.3421 10.7999L49.6711 1.91992L1.84178e-05 10.7999" stroke="#B2D6FF" stroke-width="0.2" stroke-miterlimit="10" stroke-linecap="round"/>
<path d="M1440 8.7998L1390.36 17.6798L1340.71 8.7998L1291.06 17.6798L1241.4 8.7998L1191.77 17.6798L1142.12 8.7998L1092.46 17.6798L1042.81 8.7998L993.155 17.6798L943.502 8.7998L893.866 17.6798L844.213 8.7998L794.56 17.6798L744.889 8.7998L695.235 17.6798L645.582 8.7998L595.929 17.6798L546.275 8.7998L496.622 17.6798L446.951 8.7998L397.297 17.6798L347.644 8.7998L297.991 17.6798L248.337 8.7998L198.666 17.6798L149.013 8.7998L99.3421 17.6798L49.6711 8.7998L1.84178e-05 17.6798" stroke="#B2D6FF" stroke-width="0.2" stroke-miterlimit="10" stroke-linecap="round"/>
<path d="M1440 15.6797L1390.36 24.5597L1340.71 15.6797L1291.06 24.5597L1241.4 15.6797L1191.77 24.5597L1142.12 15.6797L1092.46 24.5597L1042.81 15.6797L993.155 24.5597L943.502 15.6797L893.866 24.5597L844.213 15.6797L794.56 24.5597L744.889 15.6797L695.235 24.5597L645.582 15.6797L595.929 24.5597L546.275 15.6797L496.622 24.5597L446.951 15.6797L397.297 24.5597L347.644 15.6797L297.991 24.5597L248.337 15.6797L198.666 24.5597L149.013 15.6797L99.3421 24.5597L49.6711 15.6797L1.84178e-05 24.5597" stroke="#B2D6FF" stroke-width="0.2" stroke-miterlimit="10" stroke-linecap="round"/>
<path d="M1440 22.5601L1390.36 31.4401L1340.71 22.5601L1291.06 31.4401L1241.4 22.5601L1191.77 31.4401L1142.12 22.5601L1092.46 31.4401L1042.81 22.5601L993.155 31.4401L943.502 22.5601L893.866 31.4401L844.213 22.5601L794.56 31.4401L744.889 22.5601L695.235 31.4401L645.582 22.5601L595.929 31.4401L546.275 22.5601L496.622 31.4401L446.951 22.5601L397.297 31.4401L347.644 22.5601L297.991 31.4401L248.337 22.5601L198.666 31.4401L149.013 22.5601L99.3421 31.4401L49.6711 22.5601L1.84178e-05 31.4401" stroke="#B2D6FF" stroke-width="0.2" stroke-miterlimit="10" stroke-linecap="round"/>
<path d="M1440 29.4399L1390.36 38.3199L1340.71 29.4399L1291.06 38.3199L1241.4 29.4399L1191.77 38.3199L1142.12 29.4399L1092.46 38.3199L1042.81 29.4399L993.155 38.3199L943.502 29.4399L893.866 38.3199L844.213 29.4399L794.56 38.3199L744.889 29.4399L695.235 38.3199L645.582 29.4399L595.929 38.3199L546.275 29.4399L496.622 38.3199L446.951 29.4399L397.297 38.3199L347.644 29.4399L297.991 38.3199L248.337 29.4399L198.666 38.3199L149.013 29.4399L99.3421 38.3199L49.6711 29.4399L1.84178e-05 38.3199" stroke="#B2D6FF" stroke-width="0.2" stroke-miterlimit="10" stroke-linecap="round"/>
<path d="M1440 36.3198L1390.36 45.1998L1340.71 36.3198L1291.06 45.1998L1241.4 36.3198L1191.77 45.1998L1142.12 36.3198L1092.46 45.1998L1042.81 36.3198L993.155 45.1998L943.502 36.3198L893.866 45.1998L844.213 36.3198L794.56 45.1998L744.889 36.3198L695.235 45.1998L645.582 36.3198L595.929 45.1998L546.275 36.3198L496.622 45.1998L446.951 36.3198L397.297 45.1998L347.644 36.3198L297.991 45.1998L248.337 36.3198L198.666 45.1998L149.013 36.3198L99.3421 45.1998L49.6711 36.3198L1.84178e-05 45.1998" stroke="#B2D6FF" stroke-width="0.2" stroke-miterlimit="10" stroke-linecap="round"/>
<path d="M1440 43.1997L1390.36 52.0797L1340.71 43.1997L1291.06 52.0797L1241.4 43.1997L1191.77 52.0797L1142.12 43.1997L1092.46 52.0797L1042.81 43.1997L993.155 52.0797L943.502 43.1997L893.866 52.0797L844.213 43.1997L794.56 52.0797L744.889 43.1997L695.235 52.0797L645.582 43.1997L595.929 52.0797L546.275 43.1997L496.622 52.0797L446.951 43.1997L397.297 52.0797L347.644 43.1997L297.991 52.0797L248.337 43.1997L198.666 52.0797L149.013 43.1997L99.3421 52.0797L49.6711 43.1997L1.84178e-05 52.0797" stroke="#B2D6FF" stroke-width="0.2" stroke-miterlimit="10" stroke-linecap="round"/>
<path d="M1440 50.0801L1390.36 58.9601L1340.71 50.0801L1291.06 58.9601L1241.4 50.0801L1191.77 58.9601L1142.12 50.0801L1092.46 58.9601L1042.81 50.0801L993.155 58.9601L943.502 50.0801L893.866 58.9601L844.213 50.0801L794.56 58.9601L744.889 50.0801L695.235 58.9601L645.582 50.0801L595.929 58.9601L546.275 50.0801L496.622 58.9601L446.951 50.0801L397.297 58.9601L347.644 50.0801L297.991 58.9601L248.337 50.0801L198.666 58.9601L149.013 50.0801L99.3421 58.9601L49.6711 50.0801L1.84178e-05 58.9601" stroke="#B2D6FF" stroke-width="0.2" stroke-miterlimit="10" stroke-linecap="round"/>
<path d="M1440 56.96L1390.36 65.84L1340.71 56.96L1291.06 65.84L1241.4 56.96L1191.77 65.84L1142.12 56.96L1092.46 65.84L1042.81 56.96L993.155 65.84L943.502 56.96L893.866 65.84L844.213 56.96L794.56 65.84L744.889 56.96L695.235 65.84L645.582 56.96L595.929 65.84L546.275 56.96L496.622 65.84L446.951 56.96L397.297 65.84L347.644 56.96L297.991 65.84L248.337 56.96L198.666 65.84L149.013 56.96L99.3421 65.84L49.6711 56.96L1.84178e-05 65.84" stroke="#B2D6FF" stroke-width="0.2" stroke-miterlimit="10" stroke-linecap="round"/>
<path d="M1440 63.8398L1390.36 72.7198L1340.71 63.8398L1291.06 72.7198L1241.4 63.8398L1191.77 72.7198L1142.12 63.8398L1092.46 72.7198L1042.81 63.8398L993.155 72.7198L943.502 63.8398L893.866 72.7198L844.213 63.8398L794.56 72.7198L744.889 63.8398L695.235 72.7198L645.582 63.8398L595.929 72.7198L546.275 63.8398L496.622 72.7198L446.951 63.8398L397.297 72.7198L347.644 63.8398L297.991 72.7198L248.337 63.8398L198.666 72.7198L149.013 63.8398L99.3421 72.7198L49.6711 63.8398L1.84178e-05 72.7198" stroke="#B2D6FF" stroke-width="0.2" stroke-miterlimit="10" stroke-linecap="round"/>
<path d="M1440 70.7197L1390.36 79.5997L1340.71 70.7197L1291.06 79.5997L1241.4 70.7197L1191.77 79.5997L1142.12 70.7197L1092.46 79.5997L1042.81 70.7197L993.155 79.5997L943.502 70.7197L893.866 79.5997L844.213 70.7197L794.56 79.5997L744.889 70.7197L695.235 79.5997L645.582 70.7197L595.929 79.5997L546.275 70.7197L496.622 79.5997L446.951 70.7197L397.297 79.5997L347.644 70.7197L297.991 79.5997L248.337 70.7197L198.666 79.5997L149.013 70.7197L99.3421 79.5997L49.6711 70.7197L1.84178e-05 79.5997" stroke="#B2D6FF" stroke-width="0.2" stroke-miterlimit="10" stroke-linecap="round"/>
<path d="M1440 77.6001L1390.36 86.4801L1340.71 77.6001L1291.06 86.4801L1241.4 77.6001L1191.77 86.4801L1142.12 77.6001L1092.46 86.4801L1042.81 77.6001L993.155 86.4801L943.502 77.6001L893.866 86.4801L844.213 77.6001L794.56 86.4801L744.889 77.6001L695.235 86.4801L645.582 77.6001L595.929 86.4801L546.275 77.6001L496.622 86.4801L446.951 77.6001L397.297 86.4801L347.644 77.6001L297.991 86.4801L248.337 77.6001L198.666 86.4801L149.013 77.6001L99.3421 86.4801L49.6711 77.6001L1.84178e-05 86.4801" stroke="#B2D6FF" stroke-width="0.2" stroke-miterlimit="10" stroke-linecap="round"/>
<path d="M1440 84.48L1390.36 93.36L1340.71 84.48L1291.06 93.36L1241.4 84.48L1191.77 93.36L1142.12 84.48L1092.46 93.36L1042.81 84.48L993.155 93.36L943.502 84.48L893.866 93.36L844.213 84.48L794.56 93.36L744.889 84.48L695.235 93.36L645.582 84.48L595.929 93.36L546.275 84.48L496.622 93.36L446.951 84.48L397.297 93.36L347.644 84.48L297.991 93.36L248.337 84.48L198.666 93.36L149.013 84.48L99.3421 93.36L49.6711 84.48L1.84178e-05 93.36" stroke="#B2D6FF" stroke-width="0.2" stroke-miterlimit="10" stroke-linecap="round"/>
<path d="M1440 91.3599L1390.36 100.24L1340.71 91.3599L1291.06 100.24L1241.4 91.3599L1191.77 100.24L1142.12 91.3599L1092.46 100.24L1042.81 91.3599L993.155 100.24L943.502 91.3599L893.866 100.24L844.213 91.3599L794.56 100.24L744.889 91.3599L695.235 100.24L645.582 91.3599L595.929 100.24L546.275 91.3599L496.622 100.24L446.951 91.3599L397.297 100.24L347.644 91.3599L297.991 100.24L248.337 91.3599L198.666 100.24L149.013 91.3599L99.3421 100.24L49.6711 91.3599L1.84178e-05 100.24" stroke="#B2D6FF" stroke-width="0.2" stroke-miterlimit="10" stroke-linecap="round"/>
<path d="M1440 98.2397L1390.36 107.12L1340.71 98.2397L1291.06 107.12L1241.4 98.2397L1191.77 107.12L1142.12 98.2397L1092.46 107.12L1042.81 98.2397L993.155 107.12L943.502 98.2397L893.866 107.12L844.213 98.2397L794.56 107.12L744.889 98.2397L695.235 107.12L645.582 98.2397L595.929 107.12L546.275 98.2397L496.622 107.12L446.951 98.2397L397.297 107.12L347.644 98.2397L297.991 107.12L248.337 98.2397L198.666 107.12L149.013 98.2397L99.3421 107.12L49.6711 98.2397L1.84178e-05 107.12" stroke="#B2D6FF" stroke-width="0.2" stroke-miterlimit="10" stroke-linecap="round"/>
<path d="M1440 105.12L1390.36 114L1340.71 105.12L1291.06 114L1241.4 105.12L1191.77 114L1142.12 105.12L1092.46 114L1042.81 105.12L993.155 114L943.502 105.12L893.866 114L844.213 105.12L794.56 114L744.889 105.12L695.235 114L645.582 105.12L595.929 114L546.275 105.12L496.622 114L446.951 105.12L397.297 114L347.644 105.12L297.991 114L248.337 105.12L198.666 114L149.013 105.12L99.3421 114L49.6711 105.12L1.84178e-05 114" stroke="#B2D6FF" stroke-width="0.2" stroke-miterlimit="10" stroke-linecap="round"/>
<path d="M1440 112L1390.36 120.88L1340.71 112L1291.06 120.88L1241.4 112L1191.77 120.88L1142.12 112L1092.46 120.88L1042.81 112L993.155 120.88L943.502 112L893.866 120.88L844.213 112L794.56 120.88L744.889 112L695.235 120.88L645.582 112L595.929 120.88L546.275 112L496.622 120.88L446.951 112L397.297 120.88L347.644 112L297.991 120.88L248.337 112L198.666 120.88L149.013 112L99.3421 120.88L49.6711 112L1.84178e-05 120.88" stroke="#B2D6FF" stroke-width="0.2" stroke-miterlimit="10" stroke-linecap="round"/>
<path d="M1440 118.88L1390.36 127.76L1340.71 118.88L1291.06 127.76L1241.4 118.88L1191.77 127.76L1142.12 118.88L1092.46 127.76L1042.81 118.88L993.155 127.76L943.502 118.88L893.866 127.76L844.213 118.88L794.56 127.76L744.889 118.88L695.235 127.76L645.582 118.88L595.929 127.76L546.275 118.88L496.622 127.76L446.951 118.88L397.297 127.76L347.644 118.88L297.991 127.76L248.337 118.88L198.666 127.76L149.013 118.88L99.3421 127.76L49.6711 118.88L1.84178e-05 127.76" stroke="#B2D6FF" stroke-width="0.2" stroke-miterlimit="10" stroke-linecap="round"/>
<path d="M1440 125.76L1390.36 134.64L1340.71 125.76L1291.06 134.64L1241.4 125.76L1191.77 134.64L1142.12 125.76L1092.46 134.64L1042.81 125.76L993.155 134.64L943.502 125.76L893.866 134.64L844.213 125.76L794.56 134.64L744.889 125.76L695.235 134.64L645.582 125.76L595.929 134.64L546.275 125.76L496.622 134.64L446.951 125.76L397.297 134.64L347.644 125.76L297.991 134.64L248.337 125.76L198.666 134.64L149.013 125.76L99.3421 134.64L49.6711 125.76L1.84178e-05 134.64" stroke="#B2D6FF" stroke-width="0.2" stroke-miterlimit="10" stroke-linecap="round"/>
<path d="M1440 132.64L1390.36 141.52L1340.71 132.64L1291.06 141.52L1241.4 132.64L1191.77 141.52L1142.12 132.64L1092.46 141.52L1042.81 132.64L993.155 141.52L943.502 132.64L893.866 141.52L844.213 132.64L794.56 141.52L744.889 132.64L695.235 141.52L645.582 132.64L595.929 141.52L546.275 132.64L496.622 141.52L446.951 132.64L397.297 141.52L347.644 132.64L297.991 141.52L248.337 132.64L198.666 141.52L149.013 132.64L99.3421 141.52L49.6711 132.64L1.84178e-05 141.52" stroke="#B2D6FF" stroke-width="0.2" stroke-miterlimit="10" stroke-linecap="round"/>
<path d="M1440 139.52L1390.36 148.4L1340.71 139.52L1291.06 148.4L1241.4 139.52L1191.77 148.4L1142.12 139.52L1092.46 148.4L1042.81 139.52L993.155 148.4L943.502 139.52L893.866 148.4L844.213 139.52L794.56 148.4L744.889 139.52L695.235 148.4L645.582 139.52L595.929 148.4L546.275 139.52L496.622 148.4L446.951 139.52L397.297 148.4L347.644 139.52L297.991 148.4L248.337 139.52L198.666 148.4L149.013 139.52L99.3421 148.4L49.6711 139.52L1.84178e-05 148.4" stroke="#B2D6FF" stroke-width="0.2" stroke-miterlimit="10" stroke-linecap="round"/>
<path d="M1440 146.4L1390.36 155.28L1340.71 146.4L1291.06 155.28L1241.4 146.4L1191.77 155.28L1142.12 146.4L1092.46 155.28L1042.81 146.4L993.155 155.28L943.502 146.4L893.866 155.28L844.213 146.4L794.56 155.28L744.889 146.4L695.235 155.28L645.582 146.4L595.929 155.28L546.275 146.4L496.622 155.28L446.951 146.4L397.297 155.28L347.644 146.4L297.991 155.28L248.337 146.4L198.666 155.28L149.013 146.4L99.3421 155.28L49.6711 146.4L1.84178e-05 155.28" stroke="#B2D6FF" stroke-width="0.2" stroke-miterlimit="10" stroke-linecap="round"/>
<path d="M1440 153.28L1390.36 162.16L1340.71 153.28L1291.06 162.16L1241.4 153.28L1191.77 162.16L1142.12 153.28L1092.46 162.16L1042.81 153.28L993.155 162.16L943.502 153.28L893.866 162.16L844.213 153.28L794.56 162.16L744.889 153.28L695.235 162.16L645.582 153.28L595.929 162.16L546.275 153.28L496.622 162.16L446.951 153.28L397.297 162.16L347.644 153.28L297.991 162.16L248.337 153.28L198.666 162.16L149.013 153.28L99.3421 162.16L49.6711 153.28L1.84178e-05 162.16" stroke="#B2D6FF" stroke-width="0.2" stroke-miterlimit="10" stroke-linecap="round"/>
<path d="M1440 160.16L1390.36 169.04L1340.71 160.16L1291.06 169.04L1241.4 160.16L1191.77 169.04L1142.12 160.16L1092.46 169.04L1042.81 160.16L993.155 169.04L943.502 160.16L893.866 169.04L844.213 160.16L794.56 169.04L744.889 160.16L695.235 169.04L645.582 160.16L595.929 169.04L546.275 160.16L496.622 169.04L446.951 160.16L397.297 169.04L347.644 160.16L297.991 169.04L248.337 160.16L198.666 169.04L149.013 160.16L99.3421 169.04L49.6711 160.16L1.84178e-05 169.04" stroke="#B2D6FF" stroke-width="0.2" stroke-miterlimit="10" stroke-linecap="round"/>
<path d="M1440 167.04L1390.36 175.92L1340.71 167.04L1291.06 175.92L1241.4 167.04L1191.77 175.92L1142.12 167.04L1092.46 175.92L1042.81 167.04L993.155 175.92L943.502 167.04L893.866 175.92L844.213 167.04L794.56 175.92L744.889 167.04L695.235 175.92L645.582 167.04L595.929 175.92L546.275 167.04L496.622 175.92L446.951 167.04L397.297 175.92L347.644 167.04L297.991 175.92L248.337 167.04L198.666 175.92L149.013 167.04L99.3421 175.92L49.6711 167.04L1.84178e-05 175.92" stroke="#B2D6FF" stroke-width="0.2" stroke-miterlimit="10" stroke-linecap="round"/>
<path d="M1440 173.92L1390.36 182.8L1340.71 173.92L1291.06 182.8L1241.4 173.92L1191.77 182.8L1142.12 173.92L1092.46 182.8L1042.81 173.92L993.155 182.8L943.502 173.92L893.866 182.8L844.213 173.92L794.56 182.8L744.889 173.92L695.235 182.8L645.582 173.92L595.929 182.8L546.275 173.92L496.622 182.8L446.951 173.92L397.297 182.8L347.644 173.92L297.991 182.8L248.337 173.92L198.666 182.8L149.013 173.92L99.3421 182.8L49.6711 173.92L1.84178e-05 182.8" stroke="#B2D6FF" stroke-width="0.2" stroke-miterlimit="10" stroke-linecap="round"/>
<path d="M1440 180.8L1390.36 189.68L1340.71 180.8L1291.06 189.68L1241.4 180.8L1191.77 189.68L1142.12 180.8L1092.46 189.68L1042.81 180.8L993.155 189.68L943.502 180.8L893.866 189.68L844.213 180.8L794.56 189.68L744.889 180.8L695.235 189.68L645.582 180.8L595.929 189.68L546.275 180.8L496.622 189.68L446.951 180.8L397.297 189.68L347.644 180.8L297.991 189.68L248.337 180.8L198.666 189.68L149.013 180.8L99.3421 189.68L49.6711 180.8L1.84178e-05 189.68" stroke="#B2D6FF" stroke-width="0.2" stroke-miterlimit="10" stroke-linecap="round"/>
<path d="M1440 187.68L1390.36 196.56L1340.71 187.68L1291.06 196.56L1241.4 187.68L1191.77 196.56L1142.12 187.68L1092.46 196.56L1042.81 187.68L993.155 196.56L943.502 187.68L893.866 196.56L844.213 187.68L794.56 196.56L744.889 187.68L695.235 196.56L645.582 187.68L595.929 196.56L546.275 187.68L496.622 196.56L446.951 187.68L397.297 196.56L347.644 187.68L297.991 196.56L248.337 187.68L198.666 196.56L149.013 187.68L99.3421 196.56L49.6711 187.68L1.84178e-05 196.56" stroke="#B2D6FF" stroke-width="0.2" stroke-miterlimit="10" stroke-linecap="round"/>
<path d="M1440 194.56L1390.36 203.44L1340.71 194.56L1291.06 203.44L1241.4 194.56L1191.77 203.44L1142.12 194.56L1092.46 203.44L1042.81 194.56L993.155 203.44L943.502 194.56L893.866 203.44L844.213 194.56L794.56 203.44L744.889 194.56L695.235 203.44L645.582 194.56L595.929 203.44L546.275 194.56L496.622 203.44L446.951 194.56L397.297 203.44L347.644 194.56L297.991 203.44L248.337 194.56L198.666 203.44L149.013 194.56L99.3421 203.44L49.6711 194.56L1.84178e-05 203.44" stroke="#B2D6FF" stroke-width="0.2" stroke-miterlimit="10" stroke-linecap="round"/>
<path d="M1440 201.44L1390.36 210.32L1340.71 201.44L1291.06 210.32L1241.4 201.44L1191.77 210.32L1142.12 201.44L1092.46 210.32L1042.81 201.44L993.155 210.32L943.502 201.44L893.866 210.32L844.213 201.44L794.56 210.32L744.889 201.44L695.235 210.32L645.582 201.44L595.929 210.32L546.275 201.44L496.622 210.32L446.951 201.44L397.297 210.32L347.644 201.44L297.991 210.32L248.337 201.44L198.666 210.32L149.013 201.44L99.3421 210.32L49.6711 201.44L1.84178e-05 210.32" stroke="#B2D6FF" stroke-width="0.2" stroke-miterlimit="10" stroke-linecap="round"/>
<path d="M1440 208.32L1390.36 217.2L1340.71 208.32L1291.06 217.2L1241.4 208.32L1191.77 217.2L1142.12 208.32L1092.46 217.2L1042.81 208.32L993.155 217.2L943.502 208.32L893.866 217.2L844.213 208.32L794.56 217.2L744.889 208.32L695.235 217.2L645.582 208.32L595.929 217.2L546.275 208.32L496.622 217.2L446.951 208.32L397.297 217.2L347.644 208.32L297.991 217.2L248.337 208.32L198.666 217.2L149.013 208.32L99.3421 217.2L49.6711 208.32L1.84178e-05 217.2" stroke="#B2D6FF" stroke-width="0.2" stroke-miterlimit="10" stroke-linecap="round"/>
<path d="M1440 215.2L1390.36 224.08L1340.71 215.2L1291.06 224.08L1241.4 215.2L1191.77 224.08L1142.12 215.2L1092.46 224.08L1042.81 215.2L993.155 224.08L943.502 215.2L893.866 224.08L844.213 215.2L794.56 224.08L744.889 215.2L695.235 224.08L645.582 215.2L595.929 224.08L546.275 215.2L496.622 224.08L446.951 215.2L397.297 224.08L347.644 215.2L297.991 224.08L248.337 215.2L198.666 224.08L149.013 215.2L99.3421 224.08L49.6711 215.2L1.84178e-05 224.08" stroke="#B2D6FF" stroke-width="0.2" stroke-miterlimit="10" stroke-linecap="round"/>
<path d="M1440 222.08L1390.36 230.96L1340.71 222.08L1291.06 230.96L1241.4 222.08L1191.77 230.96L1142.12 222.08L1092.46 230.96L1042.81 222.08L993.155 230.96L943.502 222.08L893.866 230.96L844.213 222.08L794.56 230.96L744.889 222.08L695.235 230.96L645.582 222.08L595.929 230.96L546.275 222.08L496.622 230.96L446.951 222.08L397.297 230.96L347.644 222.08L297.991 230.96L248.337 222.08L198.666 230.96L149.013 222.08L99.3421 230.96L49.6711 222.08L1.84178e-05 230.96" stroke="#B2D6FF" stroke-width="0.2" stroke-miterlimit="10" stroke-linecap="round"/>
<path d="M1440 228.96L1390.36 237.84L1340.71 228.96L1291.06 237.84L1241.4 228.96L1191.77 237.84L1142.12 228.96L1092.46 237.84L1042.81 228.96L993.155 237.84L943.502 228.96L893.866 237.84L844.213 228.96L794.56 237.84L744.889 228.96L695.235 237.84L645.582 228.96L595.929 237.84L546.275 228.96L496.622 237.84L446.951 228.96L397.297 237.84L347.644 228.96L297.991 237.84L248.337 228.96L198.666 237.84L149.013 228.96L99.3421 237.84L49.6711 228.96L1.84178e-05 237.84" stroke="#B2D6FF" stroke-width="0.2" stroke-miterlimit="10" stroke-linecap="round"/>
<path d="M1440 235.84L1390.36 244.72L1340.71 235.84L1291.06 244.72L1241.4 235.84L1191.77 244.72L1142.12 235.84L1092.46 244.72L1042.81 235.84L993.155 244.72L943.502 235.84L893.866 244.72L844.213 235.84L794.56 244.72L744.889 235.84L695.235 244.72L645.582 235.84L595.929 244.72L546.275 235.84L496.622 244.72L446.951 235.84L397.297 244.72L347.644 235.84L297.991 244.72L248.337 235.84L198.666 244.72L149.013 235.84L99.3421 244.72L49.6711 235.84L1.84178e-05 244.72" stroke="#B2D6FF" stroke-width="0.2" stroke-miterlimit="10" stroke-linecap="round"/>
<path d="M1440 242.72L1390.36 251.6L1340.71 242.72L1291.06 251.6L1241.4 242.72L1191.77 251.6L1142.12 242.72L1092.46 251.6L1042.81 242.72L993.155 251.6L943.502 242.72L893.866 251.6L844.213 242.72L794.56 251.6L744.889 242.72L695.235 251.6L645.582 242.72L595.929 251.6L546.275 242.72L496.622 251.6L446.951 242.72L397.297 251.6L347.644 242.72L297.991 251.6L248.337 242.72L198.666 251.6L149.013 242.72L99.3421 251.6L49.6711 242.72L1.84178e-05 251.6" stroke="#B2D6FF" stroke-width="0.2" stroke-miterlimit="10" stroke-linecap="round"/>
<path d="M1440 249.6L1390.36 258.48L1340.71 249.6L1291.06 258.48L1241.4 249.6L1191.77 258.48L1142.12 249.6L1092.46 258.48L1042.81 249.6L993.155 258.48L943.502 249.6L893.866 258.48L844.213 249.6L794.56 258.48L744.889 249.6L695.235 258.48L645.582 249.6L595.929 258.48L546.275 249.6L496.622 258.48L446.951 249.6L397.297 258.48L347.644 249.6L297.991 258.48L248.337 249.6L198.666 258.48L149.013 249.6L99.3421 258.48L49.6711 249.6L1.84178e-05 258.48" stroke="#B2D6FF" stroke-width="0.2" stroke-miterlimit="10" stroke-linecap="round"/>
<path d="M1440 256.48L1390.36 265.36L1340.71 256.48L1291.06 265.36L1241.4 256.48L1191.77 265.36L1142.12 256.48L1092.46 265.36L1042.81 256.48L993.155 265.36L943.502 256.48L893.866 265.36L844.213 256.48L794.56 265.36L744.889 256.48L695.235 265.36L645.582 256.48L595.929 265.36L546.275 256.48L496.622 265.36L446.951 256.48L397.297 265.36L347.644 256.48L297.991 265.36L248.337 256.48L198.666 265.36L149.013 256.48L99.3421 265.36L49.6711 256.48L1.84178e-05 265.36" stroke="#B2D6FF" stroke-width="0.2" stroke-miterlimit="10" stroke-linecap="round"/>
<path d="M1440 263.36L1390.36 272.24L1340.71 263.36L1291.06 272.24L1241.4 263.36L1191.77 272.24L1142.12 263.36L1092.46 272.24L1042.81 263.36L993.155 272.24L943.502 263.36L893.866 272.24L844.213 263.36L794.56 272.24L744.889 263.36L695.235 272.24L645.582 263.36L595.929 272.24L546.275 263.36L496.622 272.24L446.951 263.36L397.297 272.24L347.644 263.36L297.991 272.24L248.337 263.36L198.666 272.24L149.013 263.36L99.3421 272.24L49.6711 263.36L1.84178e-05 272.24" stroke="#B2D6FF" stroke-width="0.2" stroke-miterlimit="10" stroke-linecap="round"/>
<path d="M1440 270.24L1390.36 279.12L1340.71 270.24L1291.06 279.12L1241.4 270.24L1191.77 279.12L1142.12 270.24L1092.46 279.12L1042.81 270.24L993.155 279.12L943.502 270.24L893.866 279.12L844.213 270.24L794.56 279.12L744.889 270.24L695.235 279.12L645.582 270.24L595.929 279.12L546.275 270.24L496.622 279.12L446.951 270.24L397.297 279.12L347.644 270.24L297.991 279.12L248.337 270.24L198.666 279.12L149.013 270.24L99.3421 279.12L49.6711 270.24L1.84178e-05 279.12" stroke="#B2D6FF" stroke-width="0.2" stroke-miterlimit="10" stroke-linecap="round"/>
<path d="M1440 277.12L1390.36 286L1340.71 277.12L1291.06 286L1241.4 277.12L1191.77 286L1142.12 277.12L1092.46 286L1042.81 277.12L993.155 286L943.502 277.12L893.866 286L844.213 277.12L794.56 286L744.889 277.12L695.235 286L645.582 277.12L595.929 286L546.275 277.12L496.622 286L446.951 277.12L397.297 286L347.644 277.12L297.991 286L248.337 277.12L198.666 286L149.013 277.12L99.3421 286L49.6711 277.12L1.84178e-05 286" stroke="#B2D6FF" stroke-width="0.2" stroke-miterlimit="10" stroke-linecap="round"/>
<path d="M1440 284L1390.36 292.88L1340.71 284L1291.06 292.88L1241.4 284L1191.77 292.88L1142.12 284L1092.46 292.88L1042.81 284L993.155 292.88L943.502 284L893.866 292.88L844.213 284L794.56 292.88L744.889 284L695.235 292.88L645.582 284L595.929 292.88L546.275 284L496.622 292.88L446.951 284L397.297 292.88L347.644 284L297.991 292.88L248.337 284L198.666 292.88L149.013 284L99.3421 292.88L49.6711 284L1.84178e-05 292.88" stroke="#B2D6FF" stroke-width="0.2" stroke-miterlimit="10" stroke-linecap="round"/>
<path d="M1440 290.88L1390.36 299.76L1340.71 290.88L1291.06 299.76L1241.4 290.88L1191.77 299.76L1142.12 290.88L1092.46 299.76L1042.81 290.88L993.155 299.76L943.502 290.88L893.866 299.76L844.213 290.88L794.56 299.76L744.889 290.88L695.235 299.76L645.582 290.88L595.929 299.76L546.275 290.88L496.622 299.76L446.951 290.88L397.297 299.76L347.644 290.88L297.991 299.76L248.337 290.88L198.666 299.76L149.013 290.88L99.3421 299.76L49.6711 290.88L1.84178e-05 299.76" stroke="#B2D6FF" stroke-width="0.2" stroke-miterlimit="10" stroke-linecap="round"/>
<path d="M1440 297.76L1390.36 306.64L1340.71 297.76L1291.06 306.64L1241.4 297.76L1191.77 306.64L1142.12 297.76L1092.46 306.64L1042.81 297.76L993.155 306.64L943.502 297.76L893.866 306.64L844.213 297.76L794.56 306.64L744.889 297.76L695.235 306.64L645.582 297.76L595.929 306.64L546.275 297.76L496.622 306.64L446.951 297.76L397.297 306.64L347.644 297.76L297.991 306.64L248.337 297.76L198.666 306.64L149.013 297.76L99.3421 306.64L49.6711 297.76L1.84178e-05 306.64" stroke="#B2D6FF" stroke-width="0.2" stroke-miterlimit="10" stroke-linecap="round"/>
<path d="M1440 304.64L1390.36 313.52L1340.71 304.64L1291.06 313.52L1241.4 304.64L1191.77 313.52L1142.12 304.64L1092.46 313.52L1042.81 304.64L993.155 313.52L943.502 304.64L893.866 313.52L844.213 304.64L794.56 313.52L744.889 304.64L695.235 313.52L645.582 304.64L595.929 313.52L546.275 304.64L496.622 313.52L446.951 304.64L397.297 313.52L347.644 304.64L297.991 313.52L248.337 304.64L198.666 313.52L149.013 304.64L99.3421 313.52L49.6711 304.64L1.84178e-05 313.52" stroke="#B2D6FF" stroke-width="0.2" stroke-miterlimit="10" stroke-linecap="round"/>
<path d="M1440 311.52L1390.36 320.4L1340.71 311.52L1291.06 320.4L1241.4 311.52L1191.77 320.4L1142.12 311.52L1092.46 320.4L1042.81 311.52L993.155 320.4L943.502 311.52L893.866 320.4L844.213 311.52L794.56 320.4L744.889 311.52L695.235 320.4L645.582 311.52L595.929 320.4L546.275 311.52L496.622 320.4L446.951 311.52L397.297 320.4L347.644 311.52L297.991 320.4L248.337 311.52L198.666 320.4L149.013 311.52L99.3421 320.4L49.6711 311.52L1.84178e-05 320.4" stroke="#B2D6FF" stroke-width="0.2" stroke-miterlimit="10" stroke-linecap="round"/>
<path d="M1440 318.4L1390.36 327.28L1340.71 318.4L1291.06 327.28L1241.4 318.4L1191.77 327.28L1142.12 318.4L1092.46 327.28L1042.81 318.4L993.155 327.28L943.502 318.4L893.866 327.28L844.213 318.4L794.56 327.28L744.889 318.4L695.235 327.28L645.582 318.4L595.929 327.28L546.275 318.4L496.622 327.28L446.951 318.4L397.297 327.28L347.644 318.4L297.991 327.28L248.337 318.4L198.666 327.28L149.013 318.4L99.3421 327.28L49.6711 318.4L1.84178e-05 327.28" stroke="#B2D6FF" stroke-width="0.2" stroke-miterlimit="10" stroke-linecap="round"/>
<path d="M1440 325.28L1390.36 334.16L1340.71 325.28L1291.06 334.16L1241.4 325.28L1191.77 334.16L1142.12 325.28L1092.46 334.16L1042.81 325.28L993.155 334.16L943.502 325.28L893.866 334.16L844.213 325.28L794.56 334.16L744.889 325.28L695.235 334.16L645.582 325.28L595.929 334.16L546.275 325.28L496.622 334.16L446.951 325.28L397.297 334.16L347.644 325.28L297.991 334.16L248.337 325.28L198.666 334.16L149.013 325.28L99.3421 334.16L49.6711 325.28L1.84178e-05 334.16" stroke="#B2D6FF" stroke-width="0.2" stroke-miterlimit="10" stroke-linecap="round"/>
<path d="M1440 332.16L1390.36 341.04L1340.71 332.16L1291.06 341.04L1241.4 332.16L1191.77 341.04L1142.12 332.16L1092.46 341.04L1042.81 332.16L993.155 341.04L943.502 332.16L893.866 341.04L844.213 332.16L794.56 341.04L744.889 332.16L695.235 341.04L645.582 332.16L595.929 341.04L546.275 332.16L496.622 341.04L446.951 332.16L397.297 341.04L347.644 332.16L297.991 341.04L248.337 332.16L198.666 341.04L149.013 332.16L99.3421 341.04L49.6711 332.16L1.84178e-05 341.04" stroke="#B2D6FF" stroke-width="0.2" stroke-miterlimit="10" stroke-linecap="round"/>
<path d="M1440 339.04L1390.36 347.92L1340.71 339.04L1291.06 347.92L1241.4 339.04L1191.77 347.92L1142.12 339.04L1092.46 347.92L1042.81 339.04L993.155 347.92L943.502 339.04L893.866 347.92L844.213 339.04L794.56 347.92L744.889 339.04L695.235 347.92L645.582 339.04L595.929 347.92L546.275 339.04L496.622 347.92L446.951 339.04L397.297 347.92L347.644 339.04L297.991 347.92L248.337 339.04L198.666 347.92L149.013 339.04L99.3421 347.92L49.6711 339.04L1.84178e-05 347.92" stroke="#B2D6FF" stroke-width="0.2" stroke-miterlimit="10" stroke-linecap="round"/>
<path d="M1440 345.92L1390.36 354.8L1340.71 345.92L1291.06 354.8L1241.4 345.92L1191.77 354.8L1142.12 345.92L1092.46 354.8L1042.81 345.92L993.155 354.8L943.502 345.92L893.866 354.8L844.213 345.92L794.56 354.8L744.889 345.92L695.235 354.8L645.582 345.92L595.929 354.8L546.275 345.92L496.622 354.8L446.951 345.92L397.297 354.8L347.644 345.92L297.991 354.8L248.337 345.92L198.666 354.8L149.013 345.92L99.3421 354.8L49.6711 345.92L1.84178e-05 354.8" stroke="#B2D6FF" stroke-width="0.2" stroke-miterlimit="10" stroke-linecap="round"/>
<path d="M1440 352.8L1390.36 361.68L1340.71 352.8L1291.06 361.68L1241.4 352.8L1191.77 361.68L1142.12 352.8L1092.46 361.68L1042.81 352.8L993.155 361.68L943.502 352.8L893.866 361.68L844.213 352.8L794.56 361.68L744.889 352.8L695.235 361.68L645.582 352.8L595.929 361.68L546.275 352.8L496.622 361.68L446.951 352.8L397.297 361.68L347.644 352.8L297.991 361.68L248.337 352.8L198.666 361.68L149.013 352.8L99.3421 361.68L49.6711 352.8L1.84178e-05 361.68" stroke="#B2D6FF" stroke-width="0.2" stroke-miterlimit="10" stroke-linecap="round"/>
<path d="M1440 359.68L1390.36 368.56L1340.71 359.68L1291.06 368.56L1241.4 359.68L1191.77 368.56L1142.12 359.68L1092.46 368.56L1042.81 359.68L993.155 368.56L943.502 359.68L893.866 368.56L844.213 359.68L794.56 368.56L744.889 359.68L695.235 368.56L645.582 359.68L595.929 368.56L546.275 359.68L496.622 368.56L446.951 359.68L397.297 368.56L347.644 359.68L297.991 368.56L248.337 359.68L198.666 368.56L149.013 359.68L99.3421 368.56L49.6711 359.68L1.84178e-05 368.56" stroke="#B2D6FF" stroke-width="0.2" stroke-miterlimit="10" stroke-linecap="round"/>
<path d="M1440 366.56L1390.36 375.44L1340.71 366.56L1291.06 375.44L1241.4 366.56L1191.77 375.44L1142.12 366.56L1092.46 375.44L1042.81 366.56L993.155 375.44L943.502 366.56L893.866 375.44L844.213 366.56L794.56 375.44L744.889 366.56L695.235 375.44L645.582 366.56L595.929 375.44L546.275 366.56L496.622 375.44L446.951 366.56L397.297 375.44L347.644 366.56L297.991 375.44L248.337 366.56L198.666 375.44L149.013 366.56L99.3421 375.44L49.6711 366.56L1.84178e-05 375.44" stroke="#B2D6FF" stroke-width="0.2" stroke-miterlimit="10" stroke-linecap="round"/>
<path d="M1440 373.44L1390.36 382.32L1340.71 373.44L1291.06 382.32L1241.4 373.44L1191.77 382.32L1142.12 373.44L1092.46 382.32L1042.81 373.44L993.155 382.32L943.502 373.44L893.866 382.32L844.213 373.44L794.56 382.32L744.889 373.44L695.235 382.32L645.582 373.44L595.929 382.32L546.275 373.44L496.622 382.32L446.951 373.44L397.297 382.32L347.644 373.44L297.991 382.32L248.337 373.44L198.666 382.32L149.013 373.44L99.3421 382.32L49.6711 373.44L1.84178e-05 382.32" stroke="#B2D6FF" stroke-width="0.2" stroke-miterlimit="10" stroke-linecap="round"/>
<path d="M1440 380.32L1390.36 389.2L1340.71 380.32L1291.06 389.2L1241.4 380.32L1191.77 389.2L1142.12 380.32L1092.46 389.2L1042.81 380.32L993.155 389.2L943.502 380.32L893.866 389.2L844.213 380.32L794.56 389.2L744.889 380.32L695.235 389.2L645.582 380.32L595.929 389.2L546.275 380.32L496.622 389.2L446.951 380.32L397.297 389.2L347.644 380.32L297.991 389.2L248.337 380.32L198.666 389.2L149.013 380.32L99.3421 389.2L49.6711 380.32L1.84178e-05 389.2" stroke="#B2D6FF" stroke-width="0.2" stroke-miterlimit="10" stroke-linecap="round"/>
<path d="M1440 387.2L1390.36 396.08L1340.71 387.2L1291.06 396.08L1241.4 387.2L1191.77 396.08L1142.12 387.2L1092.46 396.08L1042.81 387.2L993.155 396.08L943.502 387.2L893.866 396.08L844.213 387.2L794.56 396.08L744.889 387.2L695.235 396.08L645.582 387.2L595.929 396.08L546.275 387.2L496.622 396.08L446.951 387.2L397.297 396.08L347.644 387.2L297.991 396.08L248.337 387.2L198.666 396.08L149.013 387.2L99.3421 396.08L49.6711 387.2L1.84178e-05 396.08" stroke="#B2D6FF" stroke-width="0.2" stroke-miterlimit="10" stroke-linecap="round"/>
<path d="M1440 394.08L1390.36 402.96L1340.71 394.08L1291.06 402.96L1241.4 394.08L1191.77 402.96L1142.12 394.08L1092.46 402.96L1042.81 394.08L993.155 402.96L943.502 394.08L893.866 402.96L844.213 394.08L794.56 402.96L744.889 394.08L695.235 402.96L645.582 394.08L595.929 402.96L546.275 394.08L496.622 402.96L446.951 394.08L397.297 402.96L347.644 394.08L297.991 402.96L248.337 394.08L198.666 402.96L149.013 394.08L99.3421 402.96L49.6711 394.08L1.84178e-05 402.96" stroke="#B2D6FF" stroke-width="0.2" stroke-miterlimit="10" stroke-linecap="round"/>
<path d="M1440 400.96L1390.36 409.84L1340.71 400.96L1291.06 409.84L1241.4 400.96L1191.77 409.84L1142.12 400.96L1092.46 409.84L1042.81 400.96L993.155 409.84L943.502 400.96L893.866 409.84L844.213 400.96L794.56 409.84L744.889 400.96L695.235 409.84L645.582 400.96L595.929 409.84L546.275 400.96L496.622 409.84L446.951 400.96L397.297 409.84L347.644 400.96L297.991 409.84L248.337 400.96L198.666 409.84L149.013 400.96L99.3421 409.84L49.6711 400.96L1.84178e-05 409.84" stroke="#B2D6FF" stroke-width="0.2" stroke-miterlimit="10" stroke-linecap="round"/>
<path d="M1440 407.84L1390.36 416.72L1340.71 407.84L1291.06 416.72L1241.4 407.84L1191.77 416.72L1142.12 407.84L1092.46 416.72L1042.81 407.84L993.155 416.72L943.502 407.84L893.866 416.72L844.213 407.84L794.56 416.72L744.889 407.84L695.235 416.72L645.582 407.84L595.929 416.72L546.275 407.84L496.622 416.72L446.951 407.84L397.297 416.72L347.644 407.84L297.991 416.72L248.337 407.84L198.666 416.72L149.013 407.84L99.3421 416.72L49.6711 407.84L1.84178e-05 416.72" stroke="#B2D6FF" stroke-width="0.2" stroke-miterlimit="10" stroke-linecap="round"/>
<path d="M1440 414.72L1390.36 423.6L1340.71 414.72L1291.06 423.6L1241.4 414.72L1191.77 423.6L1142.12 414.72L1092.46 423.6L1042.81 414.72L993.155 423.6L943.502 414.72L893.866 423.6L844.213 414.72L794.56 423.6L744.889 414.72L695.235 423.6L645.582 414.72L595.929 423.6L546.275 414.72L496.622 423.6L446.951 414.72L397.297 423.6L347.644 414.72L297.991 423.6L248.337 414.72L198.666 423.6L149.013 414.72L99.3421 423.6L49.6711 414.72L1.84178e-05 423.6" stroke="#B2D6FF" stroke-width="0.2" stroke-miterlimit="10" stroke-linecap="round"/>
<path d="M1440 421.6L1390.36 430.48L1340.71 421.6L1291.06 430.48L1241.4 421.6L1191.77 430.48L1142.12 421.6L1092.46 430.48L1042.81 421.6L993.155 430.48L943.502 421.6L893.866 430.48L844.213 421.6L794.56 430.48L744.889 421.6L695.235 430.48L645.582 421.6L595.929 430.48L546.275 421.6L496.622 430.48L446.951 421.6L397.297 430.48L347.644 421.6L297.991 430.48L248.337 421.6L198.666 430.48L149.013 421.6L99.3421 430.48L49.6711 421.6L1.84178e-05 430.48" stroke="#B2D6FF" stroke-width="0.2" stroke-miterlimit="10" stroke-linecap="round"/>
<path d="M1440 428.48L1390.36 437.36L1340.71 428.48L1291.06 437.36L1241.4 428.48L1191.77 437.36L1142.12 428.48L1092.46 437.36L1042.81 428.48L993.155 437.36L943.502 428.48L893.866 437.36L844.213 428.48L794.56 437.36L744.889 428.48L695.235 437.36L645.582 428.48L595.929 437.36L546.275 428.48L496.622 437.36L446.951 428.48L397.297 437.36L347.644 428.48L297.991 437.36L248.337 428.48L198.666 437.36L149.013 428.48L99.3421 437.36L49.6711 428.48L1.84178e-05 437.36" stroke="#B2D6FF" stroke-width="0.2" stroke-miterlimit="10" stroke-linecap="round"/>
<path d="M1440 435.36L1390.36 444.24L1340.71 435.36L1291.06 444.24L1241.4 435.36L1191.77 444.24L1142.12 435.36L1092.46 444.24L1042.81 435.36L993.155 444.24L943.502 435.36L893.866 444.24L844.213 435.36L794.56 444.24L744.889 435.36L695.235 444.24L645.582 435.36L595.929 444.24L546.275 435.36L496.622 444.24L446.951 435.36L397.297 444.24L347.644 435.36L297.991 444.24L248.337 435.36L198.666 444.24L149.013 435.36L99.3421 444.24L49.6711 435.36L1.84178e-05 444.24" stroke="#B2D6FF" stroke-width="0.2" stroke-miterlimit="10" stroke-linecap="round"/>
<path d="M1440 442.24L1390.36 451.12L1340.71 442.24L1291.06 451.12L1241.4 442.24L1191.77 451.12L1142.12 442.24L1092.46 451.12L1042.81 442.24L993.155 451.12L943.502 442.24L893.866 451.12L844.213 442.24L794.56 451.12L744.889 442.24L695.235 451.12L645.582 442.24L595.929 451.12L546.275 442.24L496.622 451.12L446.951 442.24L397.297 451.12L347.644 442.24L297.991 451.12L248.337 442.24L198.666 451.12L149.013 442.24L99.3421 451.12L49.6711 442.24L1.84178e-05 451.12" stroke="#B2D6FF" stroke-width="0.2" stroke-miterlimit="10" stroke-linecap="round"/>
<path d="M1440 449.12L1390.36 458L1340.71 449.12L1291.06 458L1241.4 449.12L1191.77 458L1142.12 449.12L1092.46 458L1042.81 449.12L993.155 458L943.502 449.12L893.866 458L844.213 449.12L794.56 458L744.889 449.12L695.235 458L645.582 449.12L595.929 458L546.275 449.12L496.622 458L446.951 449.12L397.297 458L347.644 449.12L297.991 458L248.337 449.12L198.666 458L149.013 449.12L99.3421 458L49.6711 449.12L1.84178e-05 458" stroke="#B2D6FF" stroke-width="0.2" stroke-miterlimit="10" stroke-linecap="round"/>
<path d="M1440 456L1390.36 464.88L1340.71 456L1291.06 464.88L1241.4 456L1191.77 464.88L1142.12 456L1092.46 464.88L1042.81 456L993.155 464.88L943.502 456L893.866 464.88L844.213 456L794.56 464.88L744.889 456L695.235 464.88L645.582 456L595.929 464.88L546.275 456L496.622 464.88L446.951 456L397.297 464.88L347.644 456L297.991 464.88L248.337 456L198.666 464.88L149.013 456L99.3421 464.88L49.6711 456L1.84178e-05 464.88" stroke="#B2D6FF" stroke-width="0.2" stroke-miterlimit="10" stroke-linecap="round"/>
<path d="M1440 462.88L1390.36 471.76L1340.71 462.88L1291.06 471.76L1241.4 462.88L1191.77 471.76L1142.12 462.88L1092.46 471.76L1042.81 462.88L993.155 471.76L943.502 462.88L893.866 471.76L844.213 462.88L794.56 471.76L744.889 462.88L695.235 471.76L645.582 462.88L595.929 471.76L546.275 462.88L496.622 471.76L446.951 462.88L397.297 471.76L347.644 462.88L297.991 471.76L248.337 462.88L198.666 471.76L149.013 462.88L99.3421 471.76L49.6711 462.88L1.84178e-05 471.76" stroke="#B2D6FF" stroke-width="0.2" stroke-miterlimit="10" stroke-linecap="round"/>
<path d="M1440 469.76L1390.36 478.64L1340.71 469.76L1291.06 478.64L1241.4 469.76L1191.77 478.64L1142.12 469.76L1092.46 478.64L1042.81 469.76L993.155 478.64L943.502 469.76L893.866 478.64L844.213 469.76L794.56 478.64L744.889 469.76L695.235 478.64L645.582 469.76L595.929 478.64L546.275 469.76L496.622 478.64L446.951 469.76L397.297 478.64L347.644 469.76L297.991 478.64L248.337 469.76L198.666 478.64L149.013 469.76L99.3421 478.64L49.6711 469.76L1.84178e-05 478.64" stroke="#B2D6FF" stroke-width="0.2" stroke-miterlimit="10" stroke-linecap="round"/>
<path d="M1440 476.64L1390.36 485.52L1340.71 476.64L1291.06 485.52L1241.4 476.64L1191.77 485.52L1142.12 476.64L1092.46 485.52L1042.81 476.64L993.155 485.52L943.502 476.64L893.866 485.52L844.213 476.64L794.56 485.52L744.889 476.64L695.235 485.52L645.582 476.64L595.929 485.52L546.275 476.64L496.622 485.52L446.951 476.64L397.297 485.52L347.644 476.64L297.991 485.52L248.337 476.64L198.666 485.52L149.013 476.64L99.3421 485.52L49.6711 476.64L1.84178e-05 485.52" stroke="#B2D6FF" stroke-width="0.2" stroke-miterlimit="10" stroke-linecap="round"/>
<path d="M1440 483.52L1390.36 492.4L1340.71 483.52L1291.06 492.4L1241.4 483.52L1191.77 492.4L1142.12 483.52L1092.46 492.4L1042.81 483.52L993.155 492.4L943.502 483.52L893.866 492.4L844.213 483.52L794.56 492.4L744.889 483.52L695.235 492.4L645.582 483.52L595.929 492.4L546.275 483.52L496.622 492.4L446.951 483.52L397.297 492.4L347.644 483.52L297.991 492.4L248.337 483.52L198.666 492.4L149.013 483.52L99.3421 492.4L49.6711 483.52L1.84178e-05 492.4" stroke="#B2D6FF" stroke-width="0.2" stroke-miterlimit="10" stroke-linecap="round"/>
<path d="M1440 490.4L1390.36 499.28L1340.71 490.4L1291.06 499.28L1241.4 490.4L1191.77 499.28L1142.12 490.4L1092.46 499.28L1042.81 490.4L993.155 499.28L943.502 490.4L893.866 499.28L844.213 490.4L794.56 499.28L744.889 490.4L695.235 499.28L645.582 490.4L595.929 499.28L546.275 490.4L496.622 499.28L446.951 490.4L397.297 499.28L347.644 490.4L297.991 499.28L248.337 490.4L198.666 499.28L149.013 490.4L99.3421 499.28L49.6711 490.4L1.84178e-05 499.28" stroke="#B2D6FF" stroke-width="0.2" stroke-miterlimit="10" stroke-linecap="round"/>
<path d="M1440 497.28L1390.36 506.16L1340.71 497.28L1291.06 506.16L1241.4 497.28L1191.77 506.16L1142.12 497.28L1092.46 506.16L1042.81 497.28L993.155 506.16L943.502 497.28L893.866 506.16L844.213 497.28L794.56 506.16L744.889 497.28L695.235 506.16L645.582 497.28L595.929 506.16L546.275 497.28L496.622 506.16L446.951 497.28L397.297 506.16L347.644 497.28L297.991 506.16L248.337 497.28L198.666 506.16L149.013 497.28L99.3421 506.16L49.6711 497.28L1.84178e-05 506.16" stroke="#B2D6FF" stroke-width="0.2" stroke-miterlimit="10" stroke-linecap="round"/>
<path d="M1440 504.16L1390.36 513.04L1340.71 504.16L1291.06 513.04L1241.4 504.16L1191.77 513.04L1142.12 504.16L1092.46 513.04L1042.81 504.16L993.155 513.04L943.502 504.16L893.866 513.04L844.213 504.16L794.56 513.04L744.889 504.16L695.235 513.04L645.582 504.16L595.929 513.04L546.275 504.16L496.622 513.04L446.951 504.16L397.297 513.04L347.644 504.16L297.991 513.04L248.337 504.16L198.666 513.04L149.013 504.16L99.3421 513.04L49.6711 504.16L1.84178e-05 513.04" stroke="#B2D6FF" stroke-width="0.2" stroke-miterlimit="10" stroke-linecap="round"/>
<path d="M1440 511.04L1390.36 519.92L1340.71 511.04L1291.06 519.92L1241.4 511.04L1191.77 519.92L1142.12 511.04L1092.46 519.92L1042.81 511.04L993.155 519.92L943.502 511.04L893.866 519.92L844.213 511.04L794.56 519.92L744.889 511.04L695.235 519.92L645.582 511.04L595.929 519.92L546.275 511.04L496.622 519.92L446.951 511.04L397.297 519.92L347.644 511.04L297.991 519.92L248.337 511.04L198.666 519.92L149.013 511.04L99.3421 519.92L49.6711 511.04L1.84178e-05 519.92" stroke="#B2D6FF" stroke-width="0.2" stroke-miterlimit="10" stroke-linecap="round"/>
<path d="M1440 517.92L1390.36 526.8L1340.71 517.92L1291.06 526.8L1241.4 517.92L1191.77 526.8L1142.12 517.92L1092.46 526.8L1042.81 517.92L993.155 526.8L943.502 517.92L893.866 526.8L844.213 517.92L794.56 526.8L744.889 517.92L695.235 526.8L645.582 517.92L595.929 526.8L546.275 517.92L496.622 526.8L446.951 517.92L397.297 526.8L347.644 517.92L297.991 526.8L248.337 517.92L198.666 526.8L149.013 517.92L99.3421 526.8L49.6711 517.92L1.84178e-05 526.8" stroke="#B2D6FF" stroke-width="0.2" stroke-miterlimit="10" stroke-linecap="round"/>
<path d="M1440 524.8L1390.36 533.68L1340.71 524.8L1291.06 533.68L1241.4 524.8L1191.77 533.68L1142.12 524.8L1092.46 533.68L1042.81 524.8L993.155 533.68L943.502 524.8L893.866 533.68L844.213 524.8L794.56 533.68L744.889 524.8L695.235 533.68L645.582 524.8L595.929 533.68L546.275 524.8L496.622 533.68L446.951 524.8L397.297 533.68L347.644 524.8L297.991 533.68L248.337 524.8L198.666 533.68L149.013 524.8L99.3421 533.68L49.6711 524.8L1.84178e-05 533.68" stroke="#B2D6FF" stroke-width="0.2" stroke-miterlimit="10" stroke-linecap="round"/>
<path d="M1440 531.68L1390.36 540.56L1340.71 531.68L1291.06 540.56L1241.4 531.68L1191.77 540.56L1142.12 531.68L1092.46 540.56L1042.81 531.68L993.155 540.56L943.502 531.68L893.866 540.56L844.213 531.68L794.56 540.56L744.889 531.68L695.235 540.56L645.582 531.68L595.929 540.56L546.275 531.68L496.622 540.56L446.951 531.68L397.297 540.56L347.644 531.68L297.991 540.56L248.337 531.68L198.666 540.56L149.013 531.68L99.3421 540.56L49.6711 531.68L1.84178e-05 540.56" stroke="#B2D6FF" stroke-width="0.2" stroke-miterlimit="10" stroke-linecap="round"/>
<path d="M1440 538.56L1390.36 547.44L1340.71 538.56L1291.06 547.44L1241.4 538.56L1191.77 547.44L1142.12 538.56L1092.46 547.44L1042.81 538.56L993.155 547.44L943.502 538.56L893.866 547.44L844.213 538.56L794.56 547.44L744.889 538.56L695.235 547.44L645.582 538.56L595.929 547.44L546.275 538.56L496.622 547.44L446.951 538.56L397.297 547.44L347.644 538.56L297.991 547.44L248.337 538.56L198.666 547.44L149.013 538.56L99.3421 547.44L49.6711 538.56L1.84178e-05 547.44" stroke="#B2D6FF" stroke-width="0.2" stroke-miterlimit="10" stroke-linecap="round"/>
<path d="M1440 545.44L1390.36 554.32L1340.71 545.44L1291.06 554.32L1241.4 545.44L1191.77 554.32L1142.12 545.44L1092.46 554.32L1042.81 545.44L993.155 554.32L943.502 545.44L893.866 554.32L844.213 545.44L794.56 554.32L744.889 545.44L695.235 554.32L645.582 545.44L595.929 554.32L546.275 545.44L496.622 554.32L446.951 545.44L397.297 554.32L347.644 545.44L297.991 554.32L248.337 545.44L198.666 554.32L149.013 545.44L99.3421 554.32L49.6711 545.44L1.84178e-05 554.32" stroke="#B2D6FF" stroke-width="0.2" stroke-miterlimit="10" stroke-linecap="round"/>
<path d="M1440 552.32L1390.36 561.2L1340.71 552.32L1291.06 561.2L1241.4 552.32L1191.77 561.2L1142.12 552.32L1092.46 561.2L1042.81 552.32L993.155 561.2L943.502 552.32L893.866 561.2L844.213 552.32L794.56 561.2L744.889 552.32L695.235 561.2L645.582 552.32L595.929 561.2L546.275 552.32L496.622 561.2L446.951 552.32L397.297 561.2L347.644 552.32L297.991 561.2L248.337 552.32L198.666 561.2L149.013 552.32L99.3421 561.2L49.6711 552.32L1.84178e-05 561.2" stroke="#B2D6FF" stroke-width="0.2" stroke-miterlimit="10" stroke-linecap="round"/>
<path d="M1440 559.2L1390.36 568.08L1340.71 559.2L1291.06 568.08L1241.4 559.2L1191.77 568.08L1142.12 559.2L1092.46 568.08L1042.81 559.2L993.155 568.08L943.502 559.2L893.866 568.08L844.213 559.2L794.56 568.08L744.889 559.2L695.235 568.08L645.582 559.2L595.929 568.08L546.275 559.2L496.622 568.08L446.951 559.2L397.297 568.08L347.644 559.2L297.991 568.08L248.337 559.2L198.666 568.08L149.013 559.2L99.3421 568.08L49.6711 559.2L1.84178e-05 568.08" stroke="#B2D6FF" stroke-width="0.2" stroke-miterlimit="10" stroke-linecap="round"/>
</g>
<defs>
<clipPath id="clip0_3533_6420">
<rect width="1440" height="570" fill="white"/>
</clipPath>
</defs>
</svg>
