<svg width="18" height="16" viewBox="0 0 18 16" fill="none" xmlns="http://www.w3.org/2000/svg">
<path d="M16.9166 12.9997L11.3809 7.99967M6.61901 7.99967L1.08332 12.9997M0.666626 3.83301L7.47073 8.59588C8.0217 8.98156 8.29719 9.1744 8.59685 9.2491C8.86154 9.31508 9.13838 9.31508 9.40307 9.2491C9.70273 9.1744 9.97822 8.98156 10.5292 8.59588L17.3333 3.83301M4.66663 14.6663H13.3333C14.7334 14.6663 15.4335 14.6663 15.9683 14.3939C16.4387 14.1542 16.8211 13.7717 17.0608 13.3013C17.3333 12.7665 17.3333 12.0665 17.3333 10.6663V5.33301C17.3333 3.93288 17.3333 3.23281 17.0608 2.69803C16.8211 2.22763 16.4387 1.84517 15.9683 1.60549C15.4335 1.33301 14.7334 1.33301 13.3333 1.33301H4.66663C3.26649 1.33301 2.56643 1.33301 2.03165 1.60549C1.56124 1.84517 1.17879 2.22763 0.93911 2.69803C0.666626 3.23281 0.666626 3.93288 0.666626 5.33301V10.6663C0.666626 12.0665 0.666626 12.7665 0.93911 13.3013C1.17879 13.7717 1.56124 14.1542 2.03165 14.3939C2.56643 14.6663 3.26649 14.6663 4.66663 14.6663Z" stroke="white" stroke-linecap="round" stroke-linejoin="round"/>
</svg>
