<svg width="30" height="26" viewBox="0 0 30 26" fill="none" xmlns="http://www.w3.org/2000/svg">
<path d="M11.6664 13C14.9802 13 17.6664 10.3137 17.6664 7C17.6664 3.68629 14.9802 1 11.6664 1C8.35274 1 5.66645 3.68629 5.66645 7C5.66645 10.3137 8.35274 13 11.6664 13Z" fill="#163E7A" fill-opacity="0.933333"/>
<path d="M11.6664 17C7.89228 17 4.53783 19.0594 2.41209 22.2511C1.9464 22.9503 1.71355 23.2999 1.74036 23.7466C1.76123 24.0943 1.98918 24.52 2.26703 24.7301C2.62389 25 3.11468 25 4.09626 25H19.2366C20.2182 25 20.709 25 21.0659 24.7301C21.3437 24.52 21.5717 24.0943 21.5925 23.7466C21.6193 23.2999 21.3865 22.9503 20.9208 22.2511C18.7951 19.0594 15.4406 17 11.6664 17Z" fill="#163E7A" fill-opacity="0.933333"/>
<path d="M22.9998 18.1158C24.941 19.091 26.6053 20.6559 27.8201 22.6128C28.0607 23.0004 28.181 23.1941 28.2225 23.4624C28.3071 24.0077 27.9342 24.678 27.4264 24.8938C27.1765 25 26.8954 25 26.3331 25M20.3331 12.3763C22.3087 11.3945 23.6664 9.35581 23.6664 7C23.6664 4.64419 22.3087 2.60548 20.3331 1.62368M17.6664 7C17.6664 10.3137 14.9802 13 11.6664 13C8.35274 13 5.66645 10.3137 5.66645 7C5.66645 3.68629 8.35274 1 11.6664 1C14.9802 1 17.6664 3.68629 17.6664 7ZM2.41209 22.2511C4.53783 19.0594 7.89228 17 11.6664 17C15.4406 17 18.7951 19.0594 20.9208 22.2511C21.3865 22.9503 21.6193 23.2999 21.5925 23.7466C21.5717 24.0943 21.3437 24.52 21.0659 24.7301C20.709 25 20.2182 25 19.2366 25H4.09626C3.11468 25 2.62389 25 2.26703 24.7301C1.98918 24.52 1.76123 24.0943 1.74036 23.7466C1.71355 23.2999 1.9464 22.9503 2.41209 22.2511Z" stroke="#163E7A" stroke-opacity="0.933333" stroke-width="2" stroke-linecap="round" stroke-linejoin="round"/>
</svg>
