<svg width="27" height="26" viewBox="0 0 27 26" fill="none" xmlns="http://www.w3.org/2000/svg">
<path d="M12.3333 5.00045H16.3333L20.7199 0.600452C20.8439 0.475481 20.9914 0.376289 21.1538 0.308597C21.3163 0.240906 21.4906 0.206055 21.6666 0.206055C21.8426 0.206055 22.0169 0.240906 22.1794 0.308597C22.3419 0.376289 22.4893 0.475481 22.6133 0.600452L26.0533 4.05379C26.3016 4.3036 26.441 4.64154 26.441 4.99379C26.441 5.34603 26.3016 5.68397 26.0533 5.93379L22.9999 9.00045H12.3333V11.6671C12.3333 12.0207 12.1928 12.3599 11.9427 12.6099C11.6927 12.86 11.3536 13.0005 10.9999 13.0005C10.6463 13.0005 10.3072 12.86 10.0571 12.6099C9.80708 12.3599 9.6666 12.0207 9.6666 11.6671V7.66712C9.6666 6.95988 9.94755 6.2816 10.4477 5.7815C10.9477 5.2814 11.626 5.00045 12.3333 5.00045ZM4.33327 11.6671V17.0005L1.27994 20.0538C1.0316 20.3036 0.892212 20.6415 0.892212 20.9938C0.892212 21.346 1.0316 21.684 1.27994 21.9338L4.71994 25.3871C4.84389 25.5121 4.99135 25.6113 5.15383 25.679C5.31631 25.7467 5.49059 25.7815 5.6666 25.7815C5.84262 25.7815 6.01689 25.7467 6.17937 25.679C6.34185 25.6113 6.48932 25.5121 6.61327 25.3871L12.3333 19.6671H17.6666C18.0202 19.6671 18.3594 19.5266 18.6094 19.2766C18.8595 19.0265 18.9999 18.6874 18.9999 18.3338V17.0005H20.3333C20.6869 17.0005 21.026 16.86 21.2761 16.6099C21.5261 16.3599 21.6666 16.0207 21.6666 15.6671V14.3338H22.9999C23.3536 14.3338 23.6927 14.1933 23.9427 13.9433C24.1928 13.6932 24.3333 13.3541 24.3333 13.0005V11.6671H14.9999V13.0005C14.9999 13.7077 14.719 14.386 14.2189 14.8861C13.7188 15.3862 13.0405 15.6671 12.3333 15.6671H9.6666C8.95936 15.6671 8.28108 15.3862 7.78098 14.8861C7.28089 14.386 6.99994 13.7077 6.99994 13.0005V9.00045L4.33327 11.6671Z" fill="#163E7A" fill-opacity="0.933333"/>
</svg>
