<svg width="27" height="26" viewBox="0 0 27 26" fill="none" xmlns="http://www.w3.org/2000/svg">
<path d="M1.33337 7.4C1.33337 5.15979 1.33337 4.03969 1.76935 3.18404C2.15284 2.43139 2.76476 1.81947 3.51741 1.43597C4.37306 1 5.49316 1 7.73337 1H18.9334C21.1736 1 22.2937 1 23.1493 1.43597C23.902 1.81947 24.5139 2.43139 24.8974 3.18404C25.3334 4.03969 25.3334 5.15979 25.3334 7.4V18.6C25.3334 20.8402 25.3334 21.9603 24.8974 22.816C24.5139 23.5686 23.902 24.1805 23.1493 24.564C22.2937 25 21.1736 25 18.9334 25H7.73337C5.49316 25 4.37306 25 3.51741 24.564C2.76476 24.1805 2.15284 23.5686 1.76935 22.816C1.33337 21.9603 1.33337 20.8402 1.33337 18.6V7.4Z" fill="#163E7A" fill-opacity="0.933333"/>
<path d="M8.00004 6.33333V19.6667V6.33333Z" fill="#163E7A" fill-opacity="0.933333"/>
<path d="M13.3334 11.6667V19.6667V11.6667Z" fill="#163E7A" fill-opacity="0.933333"/>
<path d="M18.6667 17V19.6667V17Z" fill="#163E7A" fill-opacity="0.933333"/>
<path d="M8.00004 6.33333V19.6667M13.3334 11.6667V19.6667M18.6667 17V19.6667M7.73337 25H18.9334C21.1736 25 22.2937 25 23.1493 24.564C23.902 24.1805 24.5139 23.5686 24.8974 22.816C25.3334 21.9603 25.3334 20.8402 25.3334 18.6V7.4C25.3334 5.15979 25.3334 4.03969 24.8974 3.18404C24.5139 2.43139 23.902 1.81947 23.1493 1.43597C22.2937 1 21.1736 1 18.9334 1H7.73337C5.49316 1 4.37306 1 3.51741 1.43597C2.76476 1.81947 2.15284 2.43139 1.76935 3.18404C1.33337 4.03969 1.33337 5.15979 1.33337 7.4V18.6C1.33337 20.8402 1.33337 21.9603 1.76935 22.816C2.15284 23.5686 2.76476 24.1805 3.51741 24.564C4.37306 25 5.49316 25 7.73337 25Z" stroke="white" stroke-width="2" stroke-linecap="round" stroke-linejoin="round"/>
</svg>
